<svg width="21" height="20" viewBox="0 0 21 20" fill="none" xmlns="http://www.w3.org/2000/svg">
<g id="Frame 38">
<g id="Union">
<path d="M14.6368 0.5L15.7493 0.501512L16.0214 0.5C16.0346 0.554416 16.0476 0.608661 16.0605 0.662705C16.2469 1.44179 16.4236 2.18 17.0437 2.79343C17.7009 3.44502 18.6579 3.76096 19.5 3.96203V5.34684C18.6472 5.5464 17.8202 5.85629 17.1554 6.51393C16.4921 7.16854 16.2231 7.96829 16.0214 8.80887L14.9089 8.80735L14.6368 8.80887C14.6235 8.75426 14.6105 8.69983 14.5975 8.64561C14.4111 7.86652 14.2346 7.12887 13.6145 6.51544C12.9573 5.86384 12.0173 5.54791 11.1752 5.34684V3.96203C12.028 3.76247 12.838 3.45258 13.5028 2.79494C14.166 2.14032 14.435 1.34057 14.6368 0.5Z" fill="#FAF7F5"/>
<path d="M5.6368 6.73166L9.79064 6.03924L10.3222 6.13571C11.2831 6.36516 12.2179 6.69917 12.8413 7.31731L12.8419 7.31787C13.2892 7.7604 13.4912 8.27113 13.6667 8.92773L7.02141 10.1937V15.0405C7.02139 15.3867 6.99557 16.0106 6.94422 16.1683C6.77918 16.9615 6.03702 17.7656 4.97255 18.1954C3.43283 18.8171 2.00551 18.4478 1.60063 17.4448C1.19576 16.4417 2.04898 15.1516 3.50636 14.5631C4.25499 14.2609 5.01741 14.2026 5.6368 14.3533V6.73166Z" fill="#FAF7F5"/>
<path d="M16.0215 14.0019C16.0215 13.6557 16.0215 10.1937 16.0215 10.1937H14.6369V13.1465C14.0043 12.9713 13.2094 13.0215 12.4295 13.3364C10.9721 13.9248 10.1189 15.215 10.5237 16.218C10.9286 17.221 12.4383 17.5571 13.8956 16.9687C14.9829 16.5296 15.6752 15.7329 15.8771 14.8905C15.8802 14.8779 15.8842 14.8619 15.8889 14.843C15.929 14.6822 16.0214 14.3118 16.0215 14.0019Z" fill="#FAF7F5"/>
</g>
</g>
</svg>
